<svg width="60" height="60" viewBox="0 0 60 60" fill="none" xmlns="http://www.w3.org/2000/svg">
<path d="M50.2078 19.2663C50.0893 18.2591 49.2357 17.5 48.2215 17.5H40V10C40 4.4775 35.5225 0 30 0C24.4775 0 20 4.4775 20 10V17.5H11.7785C10.7643 17.5 9.9107 18.2591 9.7922 19.2663L5.26279 57.7663C5.12291 58.9553 6.0519 60 7.24909 60H52.7509C53.9481 60 54.8771 58.9553 54.7372 57.7663L50.2078 19.2663ZM22.5 10C22.5 5.865 25.865 2.5 30 2.5C34.135 2.5 37.5 5.865 37.5 10V17.5H22.5V10ZM11.8563 56C10.6646 56 9.73726 54.9643 9.8685 53.7798L13.2478 23.2798C13.3601 22.2666 14.2163 21.5 15.2356 21.5H20V26.25C20 26.94 20.56 27.5 21.25 27.5C21.94 27.5 22.5 26.94 22.5 26.25V21.5H37.5V26.25C37.5 26.94 38.06 27.5 38.75 27.5C39.44 27.5 40 26.94 40 26.25V21.5H44.7448C45.7724 21.5 46.6328 22.2788 46.7349 23.3013L49.7805 53.8013C49.898 54.9786 48.9735 56 47.7904 56H11.8563Z" fill="#F9F9F9"/>
</svg>
